<?xml version="1.0" encoding="utf-8"?>
<!-- Generator: Adobe Illustrator 17.0.0, SVG Export Plug-In . SVG Version: 6.00 Build 0)  -->
<!DOCTYPE svg PUBLIC "-//W3C//DTD SVG 1.1//EN" "http://www.w3.org/Graphics/SVG/1.1/DTD/svg11.dtd">
<svg version="1.1" id="レイヤー_1" xmlns="http://www.w3.org/2000/svg" xmlns:xlink="http://www.w3.org/1999/xlink" x="0px"
	 y="0px" width="219.248px" height="15.219px" viewBox="0 0 219.248 15.219" enable-background="new 0 0 219.248 15.219"
	 xml:space="preserve">
<path fill="#040000" d="M22.152,15.012c2.596,0,5.28-1.835,5.28-4.907c0-3.367-2.661-4.874-5.297-4.874
	c-2.512,0-5.055,1.687-5.055,4.91C17.08,12.487,18.668,15.012,22.152,15.012 M22.03,6.541c1.879,0,3.244,1.633,3.244,3.882
	c0,2.117-1.048,3.281-2.947,3.281c-1.673,0-3.086-1.641-3.086-3.582C19.24,9.282,19.441,6.541,22.03,6.541"/>
<path fill="#040000" d="M62.824,10.104c0-3.367-2.66-4.874-5.299-4.874c-2.511,0-5.054,1.688-5.054,4.91
	c0,2.347,1.588,4.871,5.072,4.871C60.139,15.012,62.824,13.177,62.824,10.104 M54.633,10.123c0-0.841,0.201-3.582,2.789-3.582
	c1.88,0,3.243,1.633,3.243,3.882c0,2.117-1.046,3.281-2.945,3.281C56.045,13.705,54.633,12.064,54.633,10.123"/>
<path fill="#040000" d="M86.78,5.23c-2.511,0-5.053,1.688-5.053,4.91c0,2.347,1.586,4.871,5.072,4.871
	c2.595,0,5.281-1.835,5.281-4.908C92.08,6.738,89.419,5.23,86.78,5.23 M86.973,13.705c-1.672,0-3.085-1.641-3.085-3.582
	c0-0.841,0.201-3.582,2.79-3.582c1.878,0,3.244,1.633,3.244,3.882C89.922,12.54,88.873,13.705,86.973,13.705"/>
<path fill="#040000" d="M102.711,5.501c-1.541,0-2.624,0.656-3.43,1.45V5.385h-2.905c-0.185,0-0.336,0.152-0.336,0.34v0.209
	c0,0.188,0.15,0.34,0.336,0.34h0.854v7.493H96.29c-0.185,0-0.336,0.153-0.336,0.341v0.385c0,0.189,0.15,0.341,0.336,0.341h3.93
	c0.185,0,0.336-0.152,0.336-0.341v-0.385c0-0.188-0.15-0.341-0.336-0.341h-0.941l0.002-4.206c0-1.146,0.913-2.075,2.041-2.075
	c0.49,0,0.805,0.107,1.174,0.468h0.668V5.501H102.711z"/>
<path fill="#040000" d="M117.487,13.767h-1.135c0-0.183,0.038-1.736,0.054-2.267c0.026-0.814,0.058-1.883,0.058-2.737
	c0-0.969-0.18-1.501-0.712-2.098c-0.567-0.704-1.632-1.127-2.844-1.127c-1.025,0-2.024,0.33-3.038,1.004V5.385h-2.905
	c-0.185,0-0.336,0.152-0.336,0.34v0.208c0,0.188,0.15,0.341,0.336,0.341h0.854v7.493h-0.939c-0.185,0-0.336,0.153-0.336,0.341v0.385
	c0,0.189,0.15,0.341,0.336,0.341h3.93c0.185,0,0.336-0.152,0.336-0.341v-0.385c0-0.188-0.15-0.341-0.336-0.341h-0.941l0.002-5.545
	c0.04-0.201,0.924-1.075,2.34-1.075c0.464,0,1.231,0.22,1.567,0.508c0.556,0.497,0.735,1.145,0.735,2.668l-0.147,4.511h3.122
	c0.185,0,0.336-0.152,0.336-0.341v-0.385C117.823,13.92,117.672,13.767,117.487,13.767"/>
<path fill="#040000" d="M10.526,2.902C8.98,1.506,7.191,1.079,5.074,1.079c-0.46,0-3.609,0.086-4.652,0.116
	c-0.185,0-0.334,0.152-0.334,0.34H0.087l0.001,0.405c0,0.187,0.15,0.34,0.335,0.34l0.854,0.042v11.17l-0.941,0.036
	C0.15,13.528,0,13.682,0,13.87v0.623c0,0.189,0.15,0.341,0.335,0.341H4.56c2.003,0,3.832-0.199,5.957-2.035
	c1.871-1.765,2.149-3.823,2.149-4.892C12.665,4.816,10.739,3.086,10.526,2.902 M4.38,13.491c-0.095,0-1.077,0.001-1.077,0.001V2.322
	h0.909c3.859,0,6.259,2.418,6.259,6.082C10.471,9.219,10.138,13.491,4.38,13.491"/>
<path fill="#040000" d="M48.192,13.767h-0.876c0-0.329,0.002-2.922,0.014-3.308c0.014-0.445,0.03-0.929,0.03-1.506
	c0-2.184-1.414-3.649-3.52-3.649c-1.54,0-2.602,0.694-3.434,1.427c-0.93-1.322-2.436-1.427-2.894-1.427
	c-0.998,0-1.949,0.352-2.781,1.029l0.092-0.99H31.64c-0.185,0-0.336,0.152-0.336,0.34V5.89c0,0.189,0.15,0.342,0.335,0.342h0.909
	l0.033,7.535h-0.878c-0.185,0-0.335,0.153-0.335,0.341v0.385c0,0.189,0.15,0.341,0.335,0.341h3.703c0.184,0,0.335-0.152,0.335-0.341
	v-0.385c0-0.188-0.151-0.341-0.335-0.341h-0.877c-0.032-0.617-0.016-2.408-0.016-3.432c0-0.966,0.049-1.622,0.166-2.195
	c0.045-0.187,0.911-1.102,2.188-1.102c1.389,0,2.093,0.931,2.093,2.764l0.004,3.965h-0.877c-0.184,0-0.335,0.153-0.335,0.341v0.385
	c0,0.189,0.15,0.341,0.335,0.341h3.701c0.185,0,0.336-0.152,0.336-0.341v-0.385c0-0.188-0.15-0.341-0.336-0.341h-0.875
	c0-0.937,0.02-3.109,0.043-3.763c0.013-0.414,0.025-0.774,0.025-1.103c0-0.331-0.046-0.677-0.113-0.805
	c0.343-0.562,1.141-1.129,2.153-1.129c0.617,0,1.493,0.306,1.946,0.961c0.265,0.46,0.427,0.999,0.392,2.816
	c-0.014,0.681-0.123,4.09-0.123,4.09h2.958c0.185,0,0.336-0.152,0.336-0.341v-0.385C48.528,13.92,48.377,13.767,48.192,13.767"/>
<path fill="#040000" d="M77.62,14.803c0.185,0,0.336-0.152,0.336-0.34v-0.386c0-0.189-0.15-0.342-0.336-0.342h-1.154
	c0-0.182,0.058-1.736,0.074-2.267c0.025-0.813,0.058-1.882,0.058-2.737c0-0.969-0.18-1.5-0.712-2.099
	c-0.568-0.704-1.632-1.126-2.844-1.126c-1.026,0-2.025,0.329-3.039,1.005l0.001-6.242h-2.905c-0.186,0-0.336,0.153-0.336,0.342
	l0.001,0.21c0.001,0.187,0.15,0.339,0.335,0.339h0.854v12.576h-0.94c-0.185,0-0.335,0.153-0.335,0.342v0.386
	c0,0.188,0.15,0.34,0.335,0.34h3.931c0.186,0,0.335-0.152,0.335-0.34v-0.386c0-0.189-0.149-0.342-0.335-0.342h-0.941l0.001-5.575
	v0.031c0.04-0.201,0.924-1.075,2.342-1.075c0.463,0,1.23,0.219,1.565,0.509c0.557,0.496,0.736,1.145,0.736,2.668l-0.252,4.511H77.62
	z"/>
<path fill="#040000" d="M164.847,3.464c0.657,0,1.189-0.541,1.189-1.21c0-0.669-0.533-1.209-1.189-1.209
	c-0.658,0-1.189,0.541-1.189,1.209C163.658,2.922,164.189,3.464,164.847,3.464"/>
<path fill="#040000" d="M147.637,1.528v-0.22c0-0.193-0.153-0.347-0.342-0.347h-3.207c-0.19,0-0.342,0.155-0.342,0.347v0.22
	c0,0.192,0.152,0.347,0.342,0.347h0.839c-0.282,0.87-2.858,9.09-2.858,9.09c-0.16-0.47-3.21-10.005-3.21-10.005h-1.171
	l-3.511,10.005l-2.256-9.09h0.831c0.189,0,0.341-0.155,0.342-0.347l0.001-0.22h-0.001c0-0.193-0.153-0.347-0.342-0.347h-3.988
	c-0.189,0-0.343,0.155-0.343,0.347v0.22c0,0.192,0.154,0.347,0.343,0.347h0.761c0.215,0.687,3.67,13.344,3.67,13.344h1.022
	l3.708-10.543c0.215,0.687,3.265,10.543,3.265,10.543h1.023l4.362-13.344h0.72C147.484,1.875,147.637,1.72,147.637,1.528"/>
<path fill="#040000" d="M183.102,14.834c0.189,0,0.342-0.156,0.342-0.348v-0.394c0-0.191-0.153-0.347-0.342-0.347h-1.157
	c0-0.187,0.038-1.771,0.054-2.314c0.026-0.83,0.059-1.921,0.059-2.792c0-0.989-0.184-1.529-0.726-2.14
	c-0.579-0.718-1.665-1.148-2.901-1.148c-1.045,0-2.065,0.335-3.099,1.024l0.001-1.18h-2.965c-0.189,0-0.341,0.155-0.341,0.348v0.212
	c0,0.192,0.152,0.348,0.341,0.348h0.871v7.643h-0.958c-0.189,0-0.342,0.156-0.342,0.347v0.394c0,0.192,0.153,0.348,0.342,0.348h4.01
	c0.189,0,0.342-0.156,0.342-0.348v-0.394c0-0.191-0.153-0.347-0.342-0.347h-0.959l0.001-5.656c0.04-0.205,0.942-1.096,2.387-1.096
	c0.472,0,1.257,0.224,1.598,0.518c0.568,0.508,0.75,1.168,0.75,2.721l-0.15,4.602H183.102z"/>
<path fill="#040000" d="M206.594,13.645l-0.184,0.027c-0.226,0.034-0.483,0.068-0.679,0.068c-0.671,0-0.977,0-0.977-1.858L204.756,0
	h-2.963c-0.188,0-0.34,0.153-0.343,0.343l0.001,0.304c0,0.192,0.153,0.347,0.342,0.347h0.87v11.713c0,1.171,0.233,2.364,2.235,2.364
	c0.621,0,1.187-0.059,1.678-0.174l0.017-0.004c0.189-0.043,0.341-0.156,0.341-0.348v-0.552
	C206.935,13.801,206.783,13.645,206.594,13.645"/>
<path fill="#040000" d="M157.782,5.315c-1.572,0-2.677,0.668-3.499,1.479l0.001-1.598h-2.964c-0.189,0-0.341,0.155-0.341,0.348
	v0.212c0,0.192,0.152,0.349,0.341,0.349h0.871v7.642h-0.958c-0.189,0-0.343,0.156-0.343,0.348v0.393
	c0,0.192,0.154,0.348,0.343,0.348h4.009c0.189,0,0.342-0.156,0.342-0.348v-0.393c0-0.192-0.153-0.348-0.342-0.348h-0.959v-4.29
	c0-1.17,0.932-2.118,2.082-2.118c0.499,0,0.82,0.109,1.197,0.478h0.682V5.315H157.782z"/>
<path fill="#040000" d="M167.337,14.486v-0.359c0-0.192-0.153-0.348-0.342-0.348h-0.959l0.001-8.584h-2.963
	c-0.19,0-0.342,0.155-0.342,0.348v0.212c0,0.192,0.152,0.348,0.342,0.348h0.87v7.677h-0.959c-0.189,0-0.342,0.156-0.342,0.348v0.359
	c0,0.192,0.153,0.348,0.342,0.348h4.01C167.184,14.834,167.337,14.678,167.337,14.486"/>
<path fill="#040000" d="M198.028,13.779h-1.189c-1.466-1.338-2.715-2.748-3.972-4.236l-0.444-0.526l4.65-2.918h0.078
	c0.188,0,0.341-0.155,0.341-0.347V5.54c0-0.193-0.153-0.348-0.341-0.348h-2.919c-0.188,0-0.341,0.155-0.341,0.348v0.212
	c0,0.192,0.153,0.347,0.341,0.347h0.901l-4.214,2.522V0h-2.964c-0.188,0-0.34,0.154-0.343,0.345l0.001,0.267
	c0,0.192,0.153,0.349,0.342,0.349h0.871v12.819h-0.959c-0.189,0-0.342,0.156-0.342,0.348v0.359c0,0.192,0.153,0.348,0.342,0.348
	h4.01c0.189,0,0.343-0.156,0.343-0.348v-0.359c0-0.191-0.154-0.348-0.343-0.348h-0.959l0.002-3.314
	c1.787,1.736,2.993,3.455,3.518,4.249l0.087,0.12h3.505c0.189,0,0.341-0.156,0.341-0.348v-0.359
	C198.369,13.936,198.217,13.779,198.028,13.779"/>
<path fill="#040000" d="M218.641,12.9c-0.128-0.113-0.315-0.1-0.456,0.002l-0.094,0.07c-0.519,0.379-1.181,0.764-2.169,0.764
	c-1.602,0-3.307-1.319-3.307-3.763c0-0.275,0.012-0.478,0.035-0.65h6.599l-0.042-0.458c-0.189-2.155-1.945-3.717-4.171-3.717
	c-2.274,0-4.624,1.933-4.624,5.171c0,2.873,2.064,4.805,5.139,4.805c1.661,0,2.79-1.008,3.257-1.52
	c0.122-0.146,0.182-0.352,0.049-0.487L218.641,12.9z M214.871,6.484c0.717,0,1.532,0.467,1.838,1.503h-3.762
	C213.167,7.425,213.709,6.484,214.871,6.484"/>
</svg>
